<?xml version="1.0" encoding="utf-8" standalone="no"?>
<!DOCTYPE svg PUBLIC "-//W3C//DTD SVG 1.1//EN"
  "http://www.w3.org/Graphics/SVG/1.1/DTD/svg11.dtd">
<!-- Created with matplotlib (https://matplotlib.org/) -->
<svg height="345.6pt" version="1.1" viewBox="0 0 460.8 345.6" width="460.8pt" xmlns="http://www.w3.org/2000/svg" xmlns:xlink="http://www.w3.org/1999/xlink">
 <metadata>
  <rdf:RDF xmlns:cc="http://creativecommons.org/ns#" xmlns:dc="http://purl.org/dc/elements/1.1/" xmlns:rdf="http://www.w3.org/1999/02/22-rdf-syntax-ns#">
   <cc:Work>
    <dc:type rdf:resource="http://purl.org/dc/dcmitype/StillImage"/>
    <dc:date>2021-11-10T00:29:55.435298</dc:date>
    <dc:format>image/svg+xml</dc:format>
    <dc:creator>
     <cc:Agent>
      <dc:title>Matplotlib v3.3.4, https://matplotlib.org/</dc:title>
     </cc:Agent>
    </dc:creator>
   </cc:Work>
  </rdf:RDF>
 </metadata>
 <defs>
  <style type="text/css">*{stroke-linecap:butt;stroke-linejoin:round;}</style>
 </defs>
 <g id="figure_1">
  <g id="patch_1">
   <path d="M 0 345.6 
L 460.8 345.6 
L 460.8 0 
L 0 0 
z
" style="fill:#ffffff;"/>
  </g>
  <g id="axes_1">
   <g id="patch_2">
    <path d="M 57.6 307.584 
L 414.72 307.584 
L 414.72 41.472 
L 57.6 41.472 
z
" style="fill:#ffffff;"/>
   </g>
   <g id="matplotlib.axis_1">
    <g id="xtick_1">
     <g id="line2d_1">
      <defs>
       <path d="M 0 0 
L 0 3.5 
" id="m8e4117d727" style="stroke:#000000;stroke-width:0.8;"/>
      </defs>
      <g>
       <use style="stroke:#000000;stroke-width:0.8;" x="67.207124" xlink:href="#m8e4117d727" y="307.584"/>
      </g>
     </g>
     <g id="text_1">
      <!-- 0 -->
      <g transform="translate(64.707124 321.459)scale(0.1 -0.1)">
       <defs>
        <path d="M 3.125 29.296875 
Q 3.90625 50 6.4375 56.046875 
Q 8.984375 62.109375 13.671875 66.015625 
Q 18.359375 69.921875 25.1875 69.921875 
Q 32.03125 69.921875 37.109375 64.25 
Q 42.1875 58.59375 43.75 50 
Q 45.3125 41.40625 44.71875 30.265625 
Q 44.140625 19.140625 40.8125 12.109375 
Q 37.5 5.078125 30.859375 2.34375 
Q 24.21875 -0.390625 17.578125 2.921875 
Q 10.9375 6.25 8.203125 11.71875 
Q 5.46875 17.1875 4.296875 23.234375 
Q 3.125 29.296875 3.90625 50 
z
M 12.890625 52.734375 
Q 10.546875 31.25 12.5 22.84375 
Q 14.453125 14.453125 18.9375 10.9375 
Q 23.4375 7.421875 28.125 9.5625 
Q 32.8125 11.71875 34.953125 18.15625 
Q 37.109375 24.609375 37.109375 32.21875 
Q 37.109375 39.84375 36.515625 46.09375 
Q 35.9375 52.34375 33 57.421875 
Q 30.078125 62.5 25.1875 62.6875 
Q 20.3125 62.890625 16.59375 57.8125 
Q 12.890625 52.734375 10.546875 31.25 
z
" id="SimHei-48"/>
       </defs>
       <use xlink:href="#SimHei-48"/>
      </g>
     </g>
    </g>
    <g id="xtick_2">
     <g id="line2d_2">
      <g>
       <use style="stroke:#000000;stroke-width:0.8;" x="133.463154" xlink:href="#m8e4117d727" y="307.584"/>
      </g>
     </g>
     <g id="text_2">
      <!-- 10 -->
      <g transform="translate(128.463154 321.459)scale(0.1 -0.1)">
       <defs>
        <path d="M 21.875 56.25 
Q 16.796875 51.171875 8.984375 46.484375 
L 8.984375 53.90625 
Q 18.75 60.546875 25 69.53125 
L 29.6875 69.53125 
L 29.6875 2.34375 
L 21.875 2.34375 
z
" id="SimHei-49"/>
       </defs>
       <use xlink:href="#SimHei-49"/>
       <use x="50" xlink:href="#SimHei-48"/>
      </g>
     </g>
    </g>
    <g id="xtick_3">
     <g id="line2d_3">
      <g>
       <use style="stroke:#000000;stroke-width:0.8;" x="199.719184" xlink:href="#m8e4117d727" y="307.584"/>
      </g>
     </g>
     <g id="text_3">
      <!-- 20 -->
      <g transform="translate(194.719184 321.459)scale(0.1 -0.1)">
       <defs>
        <path d="M 4.6875 3.90625 
Q 5.078125 9.765625 10.15625 14.453125 
Q 15.234375 19.140625 23.046875 29.09375 
Q 30.859375 39.0625 33.203125 44.53125 
Q 35.546875 50 34.953125 53.90625 
Q 34.375 57.8125 31.25 60.34375 
Q 28.125 62.890625 24.015625 62.5 
Q 19.921875 62.109375 16.203125 59.375 
Q 12.5 56.640625 10.546875 51.171875 
L 3.125 52.34375 
Q 6.25 61.328125 11.125 65.421875 
Q 16.015625 69.53125 22.65625 69.921875 
Q 26.5625 70.3125 29.6875 69.71875 
Q 32.8125 69.140625 36.125 66.984375 
Q 39.453125 64.84375 41.59375 60.546875 
Q 43.75 56.25 43.15625 50.1875 
Q 42.578125 44.140625 37.109375 35.734375 
Q 31.640625 27.34375 16.015625 9.375 
L 44.140625 9.375 
L 44.140625 2.34375 
L 4.6875 2.34375 
z
" id="SimHei-50"/>
       </defs>
       <use xlink:href="#SimHei-50"/>
       <use x="50" xlink:href="#SimHei-48"/>
      </g>
     </g>
    </g>
    <g id="xtick_4">
     <g id="line2d_4">
      <g>
       <use style="stroke:#000000;stroke-width:0.8;" x="265.975213" xlink:href="#m8e4117d727" y="307.584"/>
      </g>
     </g>
     <g id="text_4">
      <!-- 30 -->
      <g transform="translate(260.975213 321.459)scale(0.1 -0.1)">
       <defs>
        <path d="M 3.90625 19.140625 
L 10.9375 20.3125 
Q 12.5 15.234375 16.015625 11.90625 
Q 19.53125 8.59375 24.796875 8.78125 
Q 30.078125 8.984375 33.203125 13.078125 
Q 36.328125 17.1875 35.9375 22.453125 
Q 35.546875 27.734375 31.828125 30.65625 
Q 28.125 33.59375 19.921875 34.765625 
L 19.921875 39.84375 
Q 28.125 40.625 31.828125 44.140625 
Q 35.546875 47.65625 35.15625 53.3125 
Q 34.765625 58.984375 30.078125 61.515625 
Q 25.390625 64.0625 20.109375 62.109375 
Q 14.84375 60.15625 11.71875 51.171875 
L 4.6875 52.34375 
Q 7.03125 59.375 11.125 64.0625 
Q 15.234375 68.75 22.265625 69.53125 
Q 29.296875 70.3125 34.5625 67.765625 
Q 39.84375 65.234375 41.984375 59.953125 
Q 44.140625 54.6875 42.578125 48.4375 
Q 41.015625 42.1875 33.59375 37.5 
Q 39.0625 35.15625 41.984375 30.46875 
Q 44.921875 25.78125 43.9375 18.15625 
Q 42.96875 10.546875 37.109375 5.859375 
Q 31.25 1.171875 23.828125 1.359375 
Q 16.40625 1.5625 10.9375 6.046875 
Q 5.46875 10.546875 3.90625 19.140625 
z
" id="SimHei-51"/>
       </defs>
       <use xlink:href="#SimHei-51"/>
       <use x="50" xlink:href="#SimHei-48"/>
      </g>
     </g>
    </g>
    <g id="xtick_5">
     <g id="line2d_5">
      <g>
       <use style="stroke:#000000;stroke-width:0.8;" x="332.231243" xlink:href="#m8e4117d727" y="307.584"/>
      </g>
     </g>
     <g id="text_5">
      <!-- 40 -->
      <g transform="translate(327.231243 321.459)scale(0.1 -0.1)">
       <defs>
        <path d="M 31.25 17.1875 
L 1.171875 17.1875 
L 1.171875 23.828125 
L 32.8125 69.53125 
L 38.671875 69.53125 
L 38.671875 23.828125 
L 48.046875 23.828125 
L 48.046875 17.1875 
L 38.671875 17.1875 
L 38.671875 2.34375 
L 31.25 2.34375 
z
M 31.25 23.828125 
L 31.25 54.6875 
L 9.375 23.828125 
z
" id="SimHei-52"/>
       </defs>
       <use xlink:href="#SimHei-52"/>
       <use x="50" xlink:href="#SimHei-48"/>
      </g>
     </g>
    </g>
    <g id="xtick_6">
     <g id="line2d_6">
      <g>
       <use style="stroke:#000000;stroke-width:0.8;" x="398.487273" xlink:href="#m8e4117d727" y="307.584"/>
      </g>
     </g>
     <g id="text_6">
      <!-- 50 -->
      <g transform="translate(393.487273 321.459)scale(0.1 -0.1)">
       <defs>
        <path d="M 8.59375 20.703125 
Q 11.328125 10.15625 17.96875 8.984375 
Q 24.609375 7.8125 28.703125 10.34375 
Q 32.8125 12.890625 34.5625 16.984375 
Q 36.328125 21.09375 36.125 26.171875 
Q 35.9375 31.25 33.390625 34.765625 
Q 30.859375 38.28125 26.953125 39.453125 
Q 23.046875 40.625 18.15625 39.453125 
Q 13.28125 38.28125 10.15625 33.984375 
L 3.515625 34.765625 
Q 4.296875 37.109375 10.9375 68.359375 
L 41.796875 68.359375 
L 41.796875 61.328125 
L 16.796875 61.328125 
Q 14.84375 50.78125 12.890625 44.53125 
Q 18.75 47.265625 23.828125 47.0625 
Q 28.90625 46.875 33.59375 44.71875 
Q 38.28125 42.578125 40.421875 38.859375 
Q 42.578125 35.15625 43.546875 31.4375 
Q 44.53125 27.734375 44.328125 23.4375 
Q 44.140625 19.140625 42.578125 14.640625 
Q 41.015625 10.15625 37.890625 7.21875 
Q 34.765625 4.296875 30.265625 2.53125 
Q 25.78125 0.78125 19.921875 1.171875 
Q 14.0625 1.5625 8.78125 5.46875 
Q 3.515625 9.375 1.5625 18.75 
z
" id="SimHei-53"/>
       </defs>
       <use xlink:href="#SimHei-53"/>
       <use x="50" xlink:href="#SimHei-48"/>
      </g>
     </g>
    </g>
    <g id="text_7">
     <!-- 迭代轮数 -->
     <g transform="translate(206.16 338.720719)scale(0.15 -0.15)">
      <defs>
       <path d="M 60.9375 29.296875 
Q 56.25 21.09375 51.359375 15.8125 
Q 46.484375 10.546875 38.28125 4.296875 
Q 36.71875 7.421875 31.640625 10.9375 
Q 40.625 15.234375 47.0625 22.265625 
Q 53.515625 29.296875 56.25 38.28125 
Q 36.71875 38.28125 30.46875 37.890625 
L 30.46875 45.3125 
Q 37.109375 44.921875 57.421875 44.921875 
Q 58.203125 50.78125 58.59375 58.984375 
L 43.75 58.984375 
Q 41.796875 53.90625 39.84375 49.609375 
Q 35.9375 51.5625 32.421875 52.34375 
Q 35.546875 57.421875 37.890625 64.25 
Q 40.234375 71.09375 42.1875 79.6875 
Q 44.53125 78.125 50.390625 76.953125 
Q 48.046875 73.828125 46.09375 65.625 
L 58.59375 65.625 
Q 58.59375 75.78125 57.8125 82.03125 
L 66.796875 81.640625 
Q 66.015625 76.953125 65.625 65.625 
L 77.34375 65.625 
Q 80.859375 65.625 87.109375 66.015625 
L 87.109375 58.203125 
Q 80.859375 58.984375 76.171875 58.984375 
L 65.625 58.984375 
Q 65.234375 50.78125 64.453125 44.921875 
L 80.46875 44.921875 
Q 85.546875 44.921875 92.578125 45.3125 
L 92.578125 37.890625 
Q 85.546875 38.28125 79.296875 38.28125 
L 64.0625 38.28125 
L 63.28125 35.9375 
Q 72.65625 27.734375 89.453125 10.9375 
Q 87.5 10.15625 82.421875 4.6875 
Q 74.609375 15.234375 60.9375 29.296875 
z
M 24.21875 46.09375 
L 24.21875 9.765625 
Q 34.375 -0.390625 58 -0.1875 
Q 81.640625 0 95.703125 1.5625 
Q 92.96875 -3.515625 92.1875 -7.421875 
L 55.859375 -7.421875 
Q 46.484375 -7.421875 39.453125 -6.046875 
Q 32.421875 -4.6875 26.953125 -0.78125 
Q 21.484375 3.125 18.15625 0.1875 
Q 14.84375 -2.734375 10.15625 -8.59375 
Q 7.8125 -5.46875 3.90625 -2.734375 
Q 12.109375 4.296875 16.796875 8.984375 
L 16.796875 39.453125 
Q 11.71875 39.453125 5.46875 39.0625 
L 5.46875 46.484375 
Q 12.109375 46.09375 16.796875 46.09375 
z
M 17.578125 78.515625 
Q 23.828125 66.796875 26.171875 60.9375 
Q 22.65625 60.546875 18.359375 57.03125 
Q 14.84375 66.796875 10.15625 74.21875 
Q 14.0625 75.78125 17.578125 78.515625 
z
" id="SimHei-36845"/>
       <path d="M 51.5625 46.09375 
Q 49.609375 71.484375 49.21875 79.6875 
Q 51.5625 79.296875 58.203125 78.515625 
Q 57.421875 73.828125 59.375 47.65625 
Q 78.125 51.171875 88.28125 54.296875 
L 90.234375 46.875 
Q 85.9375 46.484375 60.15625 41.015625 
Q 64.84375 16.40625 74.015625 7.03125 
Q 83.203125 -2.34375 84.5625 1.953125 
Q 85.9375 6.25 86.328125 11.328125 
Q 90.625 8.59375 94.921875 7.8125 
Q 92.1875 -3.125 89.640625 -6.640625 
Q 87.109375 -10.15625 80.265625 -7.8125 
Q 73.4375 -5.46875 65.421875 4.6875 
Q 57.421875 14.84375 52.34375 39.453125 
Q 37.5 36.328125 33.984375 35.15625 
L 31.640625 42.578125 
Q 37.890625 43.359375 51.5625 46.09375 
z
M 35.15625 77.734375 
Q 32.8125 73.828125 26.5625 57.03125 
L 26.5625 7.421875 
Q 26.5625 -0.78125 26.953125 -9.375 
L 18.75 -9.375 
Q 19.140625 -0.78125 19.140625 7.421875 
L 19.140625 42.96875 
Q 13.28125 33.59375 9.375 28.90625 
Q 7.03125 32.03125 3.515625 34.765625 
Q 9.765625 40.625 16.40625 53.515625 
Q 23.046875 66.40625 26.171875 81.25 
Q 32.03125 78.515625 35.15625 77.734375 
z
M 73.4375 76.171875 
Q 80.46875 67.578125 83.203125 63.28125 
Q 79.6875 60.9375 76.171875 58.203125 
Q 72.65625 64.84375 67.1875 71.484375 
Q 70.3125 73.4375 73.4375 76.171875 
z
" id="SimHei-20195"/>
       <path d="M 34.375 52.34375 
Q 33.984375 47.65625 33.984375 42.96875 
L 33.984375 37.890625 
Q 40.234375 37.890625 44.53125 38.28125 
L 44.53125 31.640625 
Q 39.84375 32.03125 33.984375 32.03125 
L 33.984375 17.96875 
L 46.484375 19.53125 
Q 45.703125 16.796875 45.703125 13.28125 
Q 41.015625 12.890625 33.984375 11.71875 
Q 33.984375 2.34375 34.375 -10.15625 
L 26.5625 -10.15625 
Q 26.953125 1.953125 26.953125 10.9375 
Q 10.9375 8.59375 6.25 7.421875 
Q 4.6875 12.109375 3.90625 15.234375 
Q 9.375 15.625 26.953125 17.1875 
L 26.953125 32.03125 
Q 22.265625 32.03125 17.1875 31.640625 
Q 12.109375 31.25 7.421875 30.078125 
L 4.6875 37.890625 
Q 7.03125 39.84375 10.15625 45.3125 
Q 13.28125 50.78125 16.796875 60.15625 
Q 11.71875 60.15625 4.296875 59.765625 
L 4.296875 66.796875 
Q 11.71875 66.40625 18.75 66.40625 
Q 21.484375 76.171875 22.265625 81.25 
Q 26.171875 79.296875 30.46875 78.515625 
Q 28.515625 74.21875 25.78125 66.40625 
L 32.421875 66.40625 
Q 40.625 66.40625 46.484375 66.796875 
L 46.484375 59.765625 
Q 39.84375 60.15625 32.8125 60.15625 
L 24.21875 60.15625 
Q 18.359375 45.3125 14.0625 37.890625 
L 26.953125 37.890625 
Q 26.5625 47.65625 26.5625 52.34375 
z
M 58.59375 25.390625 
Q 74.21875 32.421875 81.25 39.84375 
Q 85.546875 34.765625 87.890625 33.203125 
Q 80.859375 29.296875 74.21875 25.78125 
Q 67.578125 22.265625 58.59375 18.359375 
L 58.59375 3.515625 
Q 58.59375 -1.171875 63.28125 -1.5625 
L 76.953125 -1.5625 
Q 82.03125 -1.953125 83.203125 2.140625 
Q 84.375 6.25 84.375 9.375 
Q 90.625 5.46875 93.359375 4.6875 
Q 89.84375 -3.515625 87.6875 -5.65625 
Q 85.546875 -7.8125 80.859375 -7.8125 
L 60.15625 -7.8125 
Q 51.5625 -7.8125 51.5625 0 
L 51.5625 29.6875 
Q 51.5625 38.671875 51.171875 45.3125 
L 58.984375 45.3125 
Q 58.59375 38.28125 58.59375 32.8125 
z
M 68.359375 75 
Q 76.171875 62.109375 83.390625 57.03125 
Q 90.625 51.953125 96.875 48.828125 
Q 93.359375 44.921875 91.015625 41.40625 
Q 81.25 48.046875 75.390625 54.484375 
Q 69.53125 60.9375 65.625 67.96875 
Q 60.546875 59.765625 56.046875 53.3125 
Q 51.5625 46.875 45.703125 41.015625 
Q 42.578125 43.75 38.28125 46.875 
Q 43.359375 50 47.453125 54.484375 
Q 51.5625 58.984375 54.875 64.84375 
Q 58.203125 70.703125 61.71875 82.421875 
Q 67.1875 79.6875 71.09375 78.125 
L 68.359375 75 
z
" id="SimHei-36718"/>
       <path d="M 70.703125 76.953125 
Q 69.921875 75 68.75 71.671875 
Q 67.578125 68.359375 65.234375 59.765625 
L 83.203125 59.765625 
Q 87.109375 59.765625 92.578125 60.15625 
L 92.578125 53.125 
Q 88.28125 53.515625 85.9375 53.515625 
Q 85.9375 47.265625 83.78125 33.78125 
Q 81.640625 20.3125 76.171875 10.546875 
Q 80.078125 5.859375 84.953125 2.140625 
Q 89.84375 -1.5625 94.140625 -3.125 
Q 89.453125 -6.640625 87.890625 -9.765625 
Q 83.203125 -7.03125 79.296875 -3.515625 
Q 75.390625 0 71.484375 5.078125 
Q 67.1875 0.390625 62.296875 -2.921875 
Q 57.421875 -6.25 50 -10.15625 
Q 48.046875 -6.640625 44.53125 -4.6875 
Q 50.390625 -2.34375 57.03125 1.953125 
Q 63.671875 6.25 67.1875 10.546875 
Q 64.453125 16.015625 61.90625 22.265625 
Q 59.375 28.515625 57.421875 38.671875 
Q 56.25 35.546875 53.515625 30.46875 
Q 50.78125 32.03125 46.875 33.59375 
Q 53.125 44.53125 57.03125 57.421875 
Q 60.9375 70.3125 62.109375 79.6875 
Q 66.796875 77.734375 70.703125 76.953125 
z
M 32.8125 35.15625 
Q 31.25 33.59375 29.296875 30.078125 
L 50.78125 30.078125 
Q 48.4375 20.3125 42.578125 10.546875 
Q 48.828125 8.203125 52.34375 6.25 
Q 50.390625 3.515625 48.828125 0.390625 
Q 45.3125 2.734375 38.28125 5.078125 
Q 30.46875 -3.515625 11.328125 -10.15625 
Q 9.375 -5.859375 6.25 -4.296875 
Q 24.609375 0 31.25 7.421875 
Q 20.3125 10.15625 13.28125 12.109375 
Q 15.625 15.625 19.53125 23.828125 
Q 15.625 23.828125 6.640625 23.4375 
L 6.640625 30.46875 
Q 14.0625 30.078125 21.875 30.078125 
Q 23.4375 33.59375 24.21875 37.890625 
Q 28.515625 36.328125 32.8125 35.15625 
z
M 27.734375 61.71875 
Q 27.734375 71.09375 27.34375 79.6875 
L 35.15625 79.6875 
Q 34.765625 71.484375 34.765625 61.71875 
Q 48.046875 61.71875 53.515625 62.109375 
L 53.515625 55.078125 
Q 48.046875 55.46875 34.765625 55.46875 
Q 34.765625 44.140625 35.15625 37.890625 
L 27.34375 37.890625 
Q 27.734375 43.359375 27.734375 51.5625 
Q 25.78125 48.4375 20.3125 43.546875 
Q 14.84375 38.671875 10.15625 35.9375 
Q 8.203125 39.453125 4.296875 41.015625 
Q 7.8125 42.1875 13.671875 46.484375 
Q 19.53125 50.78125 22.65625 55.46875 
Q 14.84375 55.46875 7.8125 55.078125 
L 7.8125 62.109375 
Q 14.453125 61.71875 27.734375 61.71875 
z
M 62.109375 49.609375 
Q 65.625 26.5625 71.875 17.578125 
Q 75.78125 26.5625 77.140625 35.734375 
Q 78.515625 44.921875 78.90625 53.515625 
L 63.671875 53.515625 
L 62.109375 49.609375 
z
M 22.65625 15.625 
Q 27.34375 14.453125 35.546875 12.5 
Q 38.671875 16.40625 41.40625 23.828125 
L 26.953125 23.828125 
Q 25 19.921875 22.65625 15.625 
z
M 51.953125 75.390625 
Q 50 72.265625 48.828125 69.53125 
Q 47.65625 66.796875 45.703125 62.890625 
Q 42.578125 64.453125 39.453125 65.234375 
Q 42.578125 70.3125 45.3125 78.125 
Q 49.21875 76.171875 51.953125 75.390625 
z
M 40.234375 52.734375 
Q 45.3125 47.65625 50 42.578125 
Q 47.65625 40.625 44.921875 37.890625 
Q 39.453125 44.53125 35.9375 48.4375 
Q 38.28125 50.390625 40.234375 52.734375 
z
M 14.453125 78.125 
Q 19.921875 72.65625 23.4375 67.1875 
L 17.578125 63.671875 
Q 14.84375 69.140625 9.375 73.828125 
Q 12.890625 76.171875 14.453125 78.125 
z
" id="SimHei-25968"/>
      </defs>
      <use xlink:href="#SimHei-36845"/>
      <use x="100" xlink:href="#SimHei-20195"/>
      <use x="200" xlink:href="#SimHei-36718"/>
      <use x="300" xlink:href="#SimHei-25968"/>
     </g>
    </g>
   </g>
   <g id="matplotlib.axis_2">
    <g id="ytick_1">
     <g id="line2d_7">
      <defs>
       <path d="M 0 0 
L -3.5 0 
" id="mc691d1de24" style="stroke:#000000;stroke-width:0.8;"/>
      </defs>
      <g>
       <use style="stroke:#000000;stroke-width:0.8;" x="57.6" xlink:href="#mc691d1de24" y="278.433482"/>
      </g>
     </g>
     <g id="text_8">
      <!-- 1.55 -->
      <g transform="translate(30.6 281.870982)scale(0.1 -0.1)">
       <defs>
        <path d="M 16.796875 1.953125 
L 7.8125 1.953125 
L 7.8125 10.546875 
L 16.796875 10.546875 
z
" id="SimHei-46"/>
       </defs>
       <use xlink:href="#SimHei-49"/>
       <use x="50" xlink:href="#SimHei-46"/>
       <use x="100" xlink:href="#SimHei-53"/>
       <use x="150" xlink:href="#SimHei-53"/>
      </g>
     </g>
    </g>
    <g id="ytick_2">
     <g id="line2d_8">
      <g>
       <use style="stroke:#000000;stroke-width:0.8;" x="57.6" xlink:href="#mc691d1de24" y="243.718742"/>
      </g>
     </g>
     <g id="text_9">
      <!-- 1.60 -->
      <g transform="translate(30.6 247.156242)scale(0.1 -0.1)">
       <defs>
        <path d="M 3.515625 19.53125 
Q 4.296875 30.859375 6.046875 34.765625 
Q 7.8125 38.671875 11.328125 44.53125 
L 27.34375 69.53125 
L 36.328125 69.53125 
L 19.921875 43.75 
Q 30.46875 46.484375 36.71875 42.96875 
Q 42.96875 39.453125 45.109375 34.953125 
Q 47.265625 30.46875 47.453125 25.1875 
Q 47.65625 19.921875 45.890625 14.84375 
Q 44.140625 9.765625 39.640625 5.65625 
Q 35.15625 1.5625 27.140625 1.171875 
Q 19.140625 0.78125 13.46875 4.09375 
Q 7.8125 7.421875 5.65625 13.46875 
Q 3.515625 19.53125 4.296875 30.859375 
z
M 12.5 16.015625 
Q 19.53125 8.59375 25.390625 8.203125 
Q 31.25 7.8125 35.15625 12.109375 
Q 39.0625 16.40625 39.0625 24.609375 
Q 39.0625 32.8125 34.171875 35.9375 
Q 29.296875 39.0625 23.234375 38.28125 
Q 17.1875 37.5 14.453125 32.421875 
Q 11.71875 27.34375 12.109375 21.671875 
Q 12.5 16.015625 19.53125 8.59375 
z
" id="SimHei-54"/>
       </defs>
       <use xlink:href="#SimHei-49"/>
       <use x="50" xlink:href="#SimHei-46"/>
       <use x="100" xlink:href="#SimHei-54"/>
       <use x="150" xlink:href="#SimHei-48"/>
      </g>
     </g>
    </g>
    <g id="ytick_3">
     <g id="line2d_9">
      <g>
       <use style="stroke:#000000;stroke-width:0.8;" x="57.6" xlink:href="#mc691d1de24" y="209.004002"/>
      </g>
     </g>
     <g id="text_10">
      <!-- 1.65 -->
      <g transform="translate(30.6 212.441502)scale(0.1 -0.1)">
       <use xlink:href="#SimHei-49"/>
       <use x="50" xlink:href="#SimHei-46"/>
       <use x="100" xlink:href="#SimHei-54"/>
       <use x="150" xlink:href="#SimHei-53"/>
      </g>
     </g>
    </g>
    <g id="ytick_4">
     <g id="line2d_10">
      <g>
       <use style="stroke:#000000;stroke-width:0.8;" x="57.6" xlink:href="#mc691d1de24" y="174.289262"/>
      </g>
     </g>
     <g id="text_11">
      <!-- 1.70 -->
      <g transform="translate(30.6 177.726762)scale(0.1 -0.1)">
       <defs>
        <path d="M 13.28125 2.34375 
Q 20.3125 32.03125 37.890625 61.328125 
L 4.296875 61.328125 
L 4.296875 68.359375 
L 46.09375 68.359375 
L 46.09375 61.71875 
Q 27.734375 32.03125 21.875 2.34375 
L 13.28125 2.34375 
z
" id="SimHei-55"/>
       </defs>
       <use xlink:href="#SimHei-49"/>
       <use x="50" xlink:href="#SimHei-46"/>
       <use x="100" xlink:href="#SimHei-55"/>
       <use x="150" xlink:href="#SimHei-48"/>
      </g>
     </g>
    </g>
    <g id="ytick_5">
     <g id="line2d_11">
      <g>
       <use style="stroke:#000000;stroke-width:0.8;" x="57.6" xlink:href="#mc691d1de24" y="139.574522"/>
      </g>
     </g>
     <g id="text_12">
      <!-- 1.75 -->
      <g transform="translate(30.6 143.012022)scale(0.1 -0.1)">
       <use xlink:href="#SimHei-49"/>
       <use x="50" xlink:href="#SimHei-46"/>
       <use x="100" xlink:href="#SimHei-55"/>
       <use x="150" xlink:href="#SimHei-53"/>
      </g>
     </g>
    </g>
    <g id="ytick_6">
     <g id="line2d_12">
      <g>
       <use style="stroke:#000000;stroke-width:0.8;" x="57.6" xlink:href="#mc691d1de24" y="104.859782"/>
      </g>
     </g>
     <g id="text_13">
      <!-- 1.80 -->
      <g transform="translate(30.6 108.297282)scale(0.1 -0.1)">
       <defs>
        <path d="M 2.734375 16.796875 
Q 2.734375 26.171875 5.078125 30.65625 
Q 7.421875 35.15625 12.890625 37.890625 
Q 8.203125 40.625 6.640625 43.9375 
Q 5.078125 47.265625 4.875 51.5625 
Q 4.6875 55.859375 6.046875 58.984375 
Q 7.421875 62.109375 10.15625 64.84375 
Q 12.890625 67.578125 16.203125 68.546875 
Q 19.53125 69.53125 23.4375 69.53125 
Q 27.34375 69.53125 30.46875 68.75 
Q 33.59375 67.96875 37.109375 65.421875 
Q 40.625 62.890625 42.1875 58.203125 
Q 43.75 53.515625 41.984375 47.265625 
Q 40.234375 41.015625 32.8125 37.5 
Q 39.453125 35.546875 42.1875 31.4375 
Q 44.921875 27.34375 44.921875 21.484375 
Q 44.921875 15.625 43.15625 12.109375 
Q 41.40625 8.59375 39.25 6.25 
Q 37.109375 3.90625 33.390625 2.53125 
Q 29.6875 1.171875 24.015625 1.171875 
Q 18.359375 1.171875 14.25 2.53125 
Q 10.15625 3.90625 7.421875 6.640625 
Q 4.6875 9.375 3.703125 13.078125 
Q 2.734375 16.796875 2.734375 26.171875 
z
M 10.9375 26.5625 
Q 10.546875 17.1875 12.296875 13.671875 
Q 14.0625 10.15625 18.75 9.171875 
Q 23.4375 8.203125 28.515625 9.375 
Q 33.59375 10.546875 35.546875 14.84375 
Q 37.5 19.140625 36.90625 23.4375 
Q 36.328125 27.734375 32.03125 30.65625 
Q 27.734375 33.59375 22.65625 33.203125 
Q 17.578125 32.8125 14.25 29.6875 
Q 10.9375 26.5625 10.546875 17.1875 
z
M 12.109375 56.25 
Q 12.109375 48.4375 14.84375 44.921875 
Q 17.578125 41.40625 23.4375 41.40625 
Q 29.296875 41.40625 32.21875 44.921875 
Q 35.15625 48.4375 34.953125 53.3125 
Q 34.765625 58.203125 31.4375 60.546875 
Q 28.125 62.890625 22.453125 62.5 
Q 16.796875 62.109375 14.453125 59.171875 
Q 12.109375 56.25 12.109375 48.4375 
z
" id="SimHei-56"/>
       </defs>
       <use xlink:href="#SimHei-49"/>
       <use x="50" xlink:href="#SimHei-46"/>
       <use x="100" xlink:href="#SimHei-56"/>
       <use x="150" xlink:href="#SimHei-48"/>
      </g>
     </g>
    </g>
    <g id="ytick_7">
     <g id="line2d_13">
      <g>
       <use style="stroke:#000000;stroke-width:0.8;" x="57.6" xlink:href="#mc691d1de24" y="70.145042"/>
      </g>
     </g>
     <g id="text_14">
      <!-- 1.85 -->
      <g transform="translate(30.6 73.582542)scale(0.1 -0.1)">
       <use xlink:href="#SimHei-49"/>
       <use x="50" xlink:href="#SimHei-46"/>
       <use x="100" xlink:href="#SimHei-56"/>
       <use x="150" xlink:href="#SimHei-53"/>
      </g>
     </g>
    </g>
    <g id="text_15">
     <!-- 适应度 -->
     <g transform="translate(24.725 197.028)rotate(-90)scale(0.15 -0.15)">
      <defs>
       <path d="M 85.9375 72.265625 
Q 80.859375 72.265625 64.453125 70.703125 
L 64.453125 56.25 
Q 85.15625 56.25 91.40625 56.640625 
L 91.40625 49.609375 
Q 85.15625 50 64.453125 50 
L 64.453125 38.671875 
L 84.765625 38.671875 
Q 84.375 28.90625 84.375 23.046875 
Q 84.375 17.1875 84.765625 7.03125 
L 77.34375 7.03125 
L 77.34375 11.71875 
L 45.3125 11.71875 
L 45.3125 6.640625 
L 37.890625 6.640625 
Q 38.28125 16.40625 38.28125 22.65625 
Q 38.28125 28.90625 37.890625 38.671875 
L 57.421875 38.671875 
L 57.421875 50 
Q 37.109375 50 30.859375 49.609375 
L 30.859375 56.640625 
Q 35.9375 56.25 57.421875 56.25 
L 57.421875 69.921875 
Q 52.734375 69.53125 38.671875 67.96875 
Q 37.890625 71.484375 35.15625 74.609375 
Q 48.046875 74.609375 60.546875 76.171875 
Q 73.046875 77.734375 82.03125 80.078125 
Q 82.8125 77.34375 85.9375 72.265625 
z
M 25.390625 44.53125 
Q 25 37.5 25 30.078125 
L 25 9.765625 
Q 35.15625 1.171875 56.640625 0.1875 
Q 78.125 -0.78125 94.140625 2.34375 
Q 91.796875 -1.953125 90.234375 -7.03125 
L 64.0625 -7.03125 
Q 54.296875 -7.03125 45.890625 -5.859375 
Q 37.5 -4.6875 29.875 -0.578125 
Q 22.265625 3.515625 18.9375 -0.1875 
Q 15.625 -3.90625 12.109375 -8.59375 
Q 8.203125 -5.46875 5.078125 -3.90625 
Q 13.671875 4.296875 17.96875 7.421875 
L 17.96875 38.28125 
Q 11.71875 38.28125 6.25 37.890625 
L 6.25 44.921875 
Q 12.109375 44.53125 17.1875 44.53125 
z
M 77.34375 17.96875 
L 77.34375 32.421875 
L 45.3125 32.421875 
L 45.3125 17.96875 
z
M 16.015625 75.78125 
Q 22.65625 68.75 27.734375 61.328125 
Q 23.046875 58.59375 21.484375 56.640625 
Q 17.1875 63.671875 10.15625 71.09375 
Q 13.671875 73.046875 16.015625 75.78125 
z
" id="SimHei-36866"/>
       <path d="M 55.078125 82.421875 
Q 57.8125 75.390625 60.15625 68.75 
L 74.21875 68.75 
Q 82.421875 68.75 91.40625 69.140625 
L 91.40625 62.109375 
Q 82.421875 62.5 74.21875 62.5 
L 23.046875 62.5 
Q 23.046875 39.453125 22.265625 29.6875 
Q 21.484375 19.921875 19.328125 9.765625 
Q 17.1875 -0.390625 11.71875 -9.765625 
Q 8.984375 -6.25 4.6875 -3.90625 
Q 9.765625 2.734375 12.5 14.640625 
Q 15.234375 26.5625 15.625 40.234375 
Q 16.015625 53.90625 15.625 68.75 
L 50.78125 68.75 
Q 49.609375 74.21875 46.875 79.6875 
Q 50.78125 80.46875 55.078125 82.421875 
z
M 87.890625 48.828125 
Q 83.984375 40.234375 81.046875 32.03125 
Q 78.125 23.828125 69.53125 3.515625 
L 80.46875 3.515625 
Q 85.9375 3.515625 92.578125 3.90625 
L 92.578125 -4.296875 
Q 85.9375 -3.90625 80.46875 -3.90625 
L 38.671875 -3.90625 
Q 32.03125 -3.90625 22.65625 -4.296875 
L 22.65625 3.90625 
Q 31.640625 3.515625 38.671875 3.515625 
L 61.71875 3.515625 
Q 67.578125 15.625 72.0625 28.90625 
Q 76.5625 42.1875 78.515625 52.34375 
Q 83.59375 49.609375 87.890625 48.828125 
z
M 32.8125 44.53125 
Q 42.96875 28.515625 48.046875 16.40625 
Q 45.3125 14.84375 41.40625 12.5 
Q 33.59375 30.078125 26.5625 40.234375 
Q 30.078125 42.96875 32.8125 44.53125 
z
M 51.5625 53.515625 
Q 59.375 39.84375 65.234375 26.5625 
Q 61.71875 24.609375 57.8125 22.65625 
Q 53.125 35.9375 45.3125 50 
Q 48.4375 51.171875 51.5625 53.515625 
z
" id="SimHei-24212"/>
       <path d="M 27.34375 26.171875 
Q 38.28125 25.78125 44.921875 25.78125 
L 81.25 25.78125 
Q 77.734375 19.53125 72.65625 13.28125 
Q 67.578125 7.03125 62.890625 3.125 
Q 67.96875 0.78125 77.34375 -0.78125 
Q 86.71875 -2.34375 95.3125 -2.34375 
Q 92.96875 -4.6875 91.015625 -10.15625 
Q 79.6875 -8.59375 71.09375 -6.4375 
Q 62.5 -4.296875 56.640625 -1.5625 
Q 48.4375 -5.078125 40.421875 -7.21875 
Q 32.421875 -9.375 23.828125 -10.546875 
Q 22.65625 -7.421875 19.140625 -3.90625 
Q 26.171875 -3.90625 35.15625 -1.953125 
Q 44.140625 0 50.78125 3.125 
Q 44.140625 8.59375 37.5 19.921875 
L 27.34375 19.53125 
z
M 46.484375 79.296875 
Q 50.78125 80.46875 54.296875 82.03125 
Q 56.640625 77.734375 58.984375 70.703125 
L 73.4375 70.703125 
Q 77.734375 70.703125 89.0625 71.09375 
L 89.0625 64.0625 
Q 78.125 64.453125 72.65625 64.453125 
L 21.484375 64.453125 
Q 21.484375 46.875 21.09375 36.125 
Q 20.703125 25.390625 18.9375 14.84375 
Q 17.1875 4.296875 11.328125 -8.203125 
Q 7.8125 -5.859375 3.90625 -4.6875 
Q 10.15625 6.25 11.90625 16.796875 
Q 13.671875 27.34375 13.859375 43.75 
Q 14.0625 60.15625 13.671875 70.703125 
L 50 70.703125 
Q 48.4375 75.78125 46.484375 79.296875 
z
M 38.671875 51.5625 
Q 38.671875 57.8125 38.28125 61.328125 
L 46.484375 61.328125 
Q 46.09375 58.203125 46.09375 51.5625 
L 67.1875 51.5625 
Q 67.1875 57.8125 66.796875 61.71875 
L 75 61.71875 
Q 74.609375 57.03125 74.609375 51.5625 
Q 83.203125 51.5625 89.453125 51.953125 
L 89.453125 45.3125 
Q 83.59375 45.703125 74.609375 45.703125 
Q 74.609375 35.15625 75 30.46875 
L 38.28125 30.46875 
Q 38.671875 36.71875 38.671875 45.703125 
Q 33.984375 45.703125 25 45.3125 
L 25 51.953125 
Q 33.984375 51.5625 38.671875 51.5625 
z
M 67.1875 36.71875 
L 67.1875 45.703125 
L 46.09375 45.703125 
L 46.09375 36.71875 
z
M 44.921875 19.921875 
Q 50 12.109375 57.03125 6.640625 
Q 62.890625 10.9375 69.140625 19.921875 
L 45.3125 19.921875 
z
" id="SimHei-24230"/>
      </defs>
      <use xlink:href="#SimHei-36866"/>
      <use x="100" xlink:href="#SimHei-24212"/>
      <use x="200" xlink:href="#SimHei-24230"/>
     </g>
    </g>
   </g>
   <g id="line2d_14">
    <path clip-path="url(#p727be6bdfd)" d="M 73.832727 295.488 
L 80.45833 252.663702 
L 87.083933 252.663702 
L 93.709536 252.663702 
L 100.335139 215.673381 
L 106.960742 215.673381 
L 113.586345 215.673381 
L 120.211948 215.673381 
L 126.837551 215.673381 
L 133.463154 215.673381 
L 140.088757 215.673381 
L 146.71436 215.673381 
L 153.339963 215.673381 
L 159.965566 215.673381 
L 166.591169 215.673381 
L 173.216772 215.673381 
L 179.842375 215.673381 
L 186.467978 215.673381 
L 193.093581 208.813258 
L 199.719184 208.813258 
L 206.344787 208.813258 
L 212.97039 208.813258 
L 219.595993 208.813258 
L 226.221596 208.813258 
L 232.847199 143.843623 
L 239.472801 143.843623 
L 246.098404 53.568 
L 252.724007 53.568 
L 259.34961 53.568 
L 265.975213 53.568 
L 272.600816 53.568 
L 279.226419 53.568 
L 285.852022 53.568 
L 292.477625 53.568 
L 299.103228 53.568 
L 305.728831 53.568 
L 312.354434 53.568 
L 318.980037 53.568 
L 325.60564 53.568 
L 332.231243 53.568 
L 338.856846 53.568 
L 345.482449 53.568 
L 352.108052 53.568 
L 358.733655 53.568 
L 365.359258 53.568 
L 371.984861 53.568 
L 378.610464 53.568 
L 385.236067 53.568 
L 391.86167 53.568 
L 398.487273 53.568 
" style="fill:none;stroke:#1f77b4;stroke-linecap:square;stroke-width:1.5;"/>
   </g>
   <g id="patch_3">
    <path d="M 57.6 307.584 
L 57.6 41.472 
" style="fill:none;stroke:#000000;stroke-linecap:square;stroke-linejoin:miter;stroke-width:0.8;"/>
   </g>
   <g id="patch_4">
    <path d="M 414.72 307.584 
L 414.72 41.472 
" style="fill:none;stroke:#000000;stroke-linecap:square;stroke-linejoin:miter;stroke-width:0.8;"/>
   </g>
   <g id="patch_5">
    <path d="M 57.6 307.584 
L 414.72 307.584 
" style="fill:none;stroke:#000000;stroke-linecap:square;stroke-linejoin:miter;stroke-width:0.8;"/>
   </g>
   <g id="patch_6">
    <path d="M 57.6 41.472 
L 414.72 41.472 
" style="fill:none;stroke:#000000;stroke-linecap:square;stroke-linejoin:miter;stroke-width:0.8;"/>
   </g>
  </g>
 </g>
 <defs>
  <clipPath id="p727be6bdfd">
   <rect height="266.112" width="357.12" x="57.6" y="41.472"/>
  </clipPath>
 </defs>
</svg>
