<?xml version="1.0" encoding="utf-8" standalone="no"?>
<!DOCTYPE svg PUBLIC "-//W3C//DTD SVG 1.1//EN"
  "http://www.w3.org/Graphics/SVG/1.1/DTD/svg11.dtd">
<!-- Created with matplotlib (https://matplotlib.org/) -->
<svg height="288pt" version="1.1" viewBox="0 0 576 288" width="576pt" xmlns="http://www.w3.org/2000/svg" xmlns:xlink="http://www.w3.org/1999/xlink">
 <metadata>
  <rdf:RDF xmlns:cc="http://creativecommons.org/ns#" xmlns:dc="http://purl.org/dc/elements/1.1/" xmlns:rdf="http://www.w3.org/1999/02/22-rdf-syntax-ns#">
   <cc:Work>
    <dc:type rdf:resource="http://purl.org/dc/dcmitype/StillImage"/>
    <dc:date>2021-11-09T23:11:15.603683</dc:date>
    <dc:format>image/svg+xml</dc:format>
    <dc:creator>
     <cc:Agent>
      <dc:title>Matplotlib v3.3.4, https://matplotlib.org/</dc:title>
     </cc:Agent>
    </dc:creator>
   </cc:Work>
  </rdf:RDF>
 </metadata>
 <defs>
  <style type="text/css">*{stroke-linecap:butt;stroke-linejoin:round;}</style>
 </defs>
 <g id="figure_1">
  <g id="patch_1">
   <path d="M 0 288 
L 576 288 
L 576 0 
L 0 0 
z
" style="fill:#ffffff;"/>
  </g>
  <g id="axes_1">
   <g id="patch_2">
    <path d="M 72 256.32 
L 518.4 256.32 
L 518.4 34.56 
L 72 34.56 
z
" style="fill:#ffffff;"/>
   </g>
   <g id="matplotlib.axis_1">
    <g id="xtick_1">
     <g id="line2d_1">
      <defs>
       <path d="M 0 0 
L 0 3.5 
" id="ma5226cef27" style="stroke:#000000;stroke-width:0.8;"/>
      </defs>
      <g>
       <use style="stroke:#000000;stroke-width:0.8;" x="92.290909" xlink:href="#ma5226cef27" y="256.32"/>
      </g>
     </g>
     <g id="text_1">
      <!-- 650-700 -->
      <g transform="translate(74.790909 270.195)scale(0.1 -0.1)">
       <defs>
        <path d="M 3.515625 19.53125 
Q 4.296875 30.859375 6.046875 34.765625 
Q 7.8125 38.671875 11.328125 44.53125 
L 27.34375 69.53125 
L 36.328125 69.53125 
L 19.921875 43.75 
Q 30.46875 46.484375 36.71875 42.96875 
Q 42.96875 39.453125 45.109375 34.953125 
Q 47.265625 30.46875 47.453125 25.1875 
Q 47.65625 19.921875 45.890625 14.84375 
Q 44.140625 9.765625 39.640625 5.65625 
Q 35.15625 1.5625 27.140625 1.171875 
Q 19.140625 0.78125 13.46875 4.09375 
Q 7.8125 7.421875 5.65625 13.46875 
Q 3.515625 19.53125 4.296875 30.859375 
z
M 12.5 16.015625 
Q 19.53125 8.59375 25.390625 8.203125 
Q 31.25 7.8125 35.15625 12.109375 
Q 39.0625 16.40625 39.0625 24.609375 
Q 39.0625 32.8125 34.171875 35.9375 
Q 29.296875 39.0625 23.234375 38.28125 
Q 17.1875 37.5 14.453125 32.421875 
Q 11.71875 27.34375 12.109375 21.671875 
Q 12.5 16.015625 19.53125 8.59375 
z
" id="SimHei-54"/>
        <path d="M 8.59375 20.703125 
Q 11.328125 10.15625 17.96875 8.984375 
Q 24.609375 7.8125 28.703125 10.34375 
Q 32.8125 12.890625 34.5625 16.984375 
Q 36.328125 21.09375 36.125 26.171875 
Q 35.9375 31.25 33.390625 34.765625 
Q 30.859375 38.28125 26.953125 39.453125 
Q 23.046875 40.625 18.15625 39.453125 
Q 13.28125 38.28125 10.15625 33.984375 
L 3.515625 34.765625 
Q 4.296875 37.109375 10.9375 68.359375 
L 41.796875 68.359375 
L 41.796875 61.328125 
L 16.796875 61.328125 
Q 14.84375 50.78125 12.890625 44.53125 
Q 18.75 47.265625 23.828125 47.0625 
Q 28.90625 46.875 33.59375 44.71875 
Q 38.28125 42.578125 40.421875 38.859375 
Q 42.578125 35.15625 43.546875 31.4375 
Q 44.53125 27.734375 44.328125 23.4375 
Q 44.140625 19.140625 42.578125 14.640625 
Q 41.015625 10.15625 37.890625 7.21875 
Q 34.765625 4.296875 30.265625 2.53125 
Q 25.78125 0.78125 19.921875 1.171875 
Q 14.0625 1.5625 8.78125 5.46875 
Q 3.515625 9.375 1.5625 18.75 
z
" id="SimHei-53"/>
        <path d="M 3.125 29.296875 
Q 3.90625 50 6.4375 56.046875 
Q 8.984375 62.109375 13.671875 66.015625 
Q 18.359375 69.921875 25.1875 69.921875 
Q 32.03125 69.921875 37.109375 64.25 
Q 42.1875 58.59375 43.75 50 
Q 45.3125 41.40625 44.71875 30.265625 
Q 44.140625 19.140625 40.8125 12.109375 
Q 37.5 5.078125 30.859375 2.34375 
Q 24.21875 -0.390625 17.578125 2.921875 
Q 10.9375 6.25 8.203125 11.71875 
Q 5.46875 17.1875 4.296875 23.234375 
Q 3.125 29.296875 3.90625 50 
z
M 12.890625 52.734375 
Q 10.546875 31.25 12.5 22.84375 
Q 14.453125 14.453125 18.9375 10.9375 
Q 23.4375 7.421875 28.125 9.5625 
Q 32.8125 11.71875 34.953125 18.15625 
Q 37.109375 24.609375 37.109375 32.21875 
Q 37.109375 39.84375 36.515625 46.09375 
Q 35.9375 52.34375 33 57.421875 
Q 30.078125 62.5 25.1875 62.6875 
Q 20.3125 62.890625 16.59375 57.8125 
Q 12.890625 52.734375 10.546875 31.25 
z
" id="SimHei-48"/>
        <path d="M 46.484375 33.203125 
L 1.953125 33.203125 
L 1.953125 39.453125 
L 46.484375 39.453125 
z
" id="SimHei-45"/>
        <path d="M 13.28125 2.34375 
Q 20.3125 32.03125 37.890625 61.328125 
L 4.296875 61.328125 
L 4.296875 68.359375 
L 46.09375 68.359375 
L 46.09375 61.71875 
Q 27.734375 32.03125 21.875 2.34375 
L 13.28125 2.34375 
z
" id="SimHei-55"/>
       </defs>
       <use xlink:href="#SimHei-54"/>
       <use x="50" xlink:href="#SimHei-53"/>
       <use x="100" xlink:href="#SimHei-48"/>
       <use x="150" xlink:href="#SimHei-45"/>
       <use x="200" xlink:href="#SimHei-55"/>
       <use x="250" xlink:href="#SimHei-48"/>
       <use x="300" xlink:href="#SimHei-48"/>
      </g>
     </g>
    </g>
    <g id="xtick_2">
     <g id="line2d_2">
      <g>
       <use style="stroke:#000000;stroke-width:0.8;" x="193.745455" xlink:href="#ma5226cef27" y="256.32"/>
      </g>
     </g>
     <g id="text_2">
      <!-- 600-650 -->
      <g transform="translate(176.245455 270.195)scale(0.1 -0.1)">
       <use xlink:href="#SimHei-54"/>
       <use x="50" xlink:href="#SimHei-48"/>
       <use x="100" xlink:href="#SimHei-48"/>
       <use x="150" xlink:href="#SimHei-45"/>
       <use x="200" xlink:href="#SimHei-54"/>
       <use x="250" xlink:href="#SimHei-53"/>
       <use x="300" xlink:href="#SimHei-48"/>
      </g>
     </g>
    </g>
    <g id="xtick_3">
     <g id="line2d_3">
      <g>
       <use style="stroke:#000000;stroke-width:0.8;" x="295.2" xlink:href="#ma5226cef27" y="256.32"/>
      </g>
     </g>
     <g id="text_3">
      <!-- 550-600 -->
      <g transform="translate(277.7 270.195)scale(0.1 -0.1)">
       <use xlink:href="#SimHei-53"/>
       <use x="50" xlink:href="#SimHei-53"/>
       <use x="100" xlink:href="#SimHei-48"/>
       <use x="150" xlink:href="#SimHei-45"/>
       <use x="200" xlink:href="#SimHei-54"/>
       <use x="250" xlink:href="#SimHei-48"/>
       <use x="300" xlink:href="#SimHei-48"/>
      </g>
     </g>
    </g>
    <g id="xtick_4">
     <g id="line2d_4">
      <g>
       <use style="stroke:#000000;stroke-width:0.8;" x="396.654545" xlink:href="#ma5226cef27" y="256.32"/>
      </g>
     </g>
     <g id="text_4">
      <!-- 500-550 -->
      <g transform="translate(379.154545 270.195)scale(0.1 -0.1)">
       <use xlink:href="#SimHei-53"/>
       <use x="50" xlink:href="#SimHei-48"/>
       <use x="100" xlink:href="#SimHei-48"/>
       <use x="150" xlink:href="#SimHei-45"/>
       <use x="200" xlink:href="#SimHei-53"/>
       <use x="250" xlink:href="#SimHei-53"/>
       <use x="300" xlink:href="#SimHei-48"/>
      </g>
     </g>
    </g>
    <g id="xtick_5">
     <g id="line2d_5">
      <g>
       <use style="stroke:#000000;stroke-width:0.8;" x="498.109091" xlink:href="#ma5226cef27" y="256.32"/>
      </g>
     </g>
     <g id="text_5">
      <!-- 450-500 -->
      <g transform="translate(480.609091 270.195)scale(0.1 -0.1)">
       <defs>
        <path d="M 31.25 17.1875 
L 1.171875 17.1875 
L 1.171875 23.828125 
L 32.8125 69.53125 
L 38.671875 69.53125 
L 38.671875 23.828125 
L 48.046875 23.828125 
L 48.046875 17.1875 
L 38.671875 17.1875 
L 38.671875 2.34375 
L 31.25 2.34375 
z
M 31.25 23.828125 
L 31.25 54.6875 
L 9.375 23.828125 
z
" id="SimHei-52"/>
       </defs>
       <use xlink:href="#SimHei-52"/>
       <use x="50" xlink:href="#SimHei-53"/>
       <use x="100" xlink:href="#SimHei-48"/>
       <use x="150" xlink:href="#SimHei-45"/>
       <use x="200" xlink:href="#SimHei-53"/>
       <use x="250" xlink:href="#SimHei-48"/>
       <use x="300" xlink:href="#SimHei-48"/>
      </g>
     </g>
    </g>
    <g id="text_6">
     <!-- 分数区间 -->
     <g transform="translate(275.2 283.491875)scale(0.1 -0.1)">
      <defs>
       <path d="M 15.625 -10.15625 
Q 12.890625 -5.859375 8.984375 -3.515625 
Q 15.234375 -1.171875 20.3125 2.140625 
Q 25.390625 5.46875 29.296875 10.34375 
Q 33.203125 15.234375 35.15625 21.09375 
Q 37.109375 26.953125 37.890625 35.546875 
Q 28.90625 35.546875 23.4375 35.15625 
L 23.4375 43.359375 
Q 29.6875 42.96875 39.453125 42.96875 
L 78.515625 42.96875 
Q 77.734375 37.109375 77.34375 32.8125 
L 74.21875 3.90625 
Q 73.4375 -3.125 67.96875 -5.46875 
Q 62.5 -7.8125 55.859375 -8.203125 
Q 55.46875 -4.296875 51.953125 0.78125 
Q 60.15625 0.390625 63.078125 1.359375 
Q 66.015625 2.34375 66.796875 8.203125 
L 69.53125 35.546875 
L 46.09375 35.546875 
Q 44.921875 25.390625 42.765625 18.546875 
Q 40.625 11.71875 36.71875 6.640625 
Q 32.8125 1.5625 27.34375 -2.734375 
Q 21.875 -7.03125 15.625 -10.15625 
z
M 61.71875 80.859375 
Q 64.453125 72.65625 72.84375 62.109375 
Q 81.25 51.5625 96.484375 43.75 
Q 93.359375 41.015625 90.234375 35.546875 
Q 83.203125 40.625 77.921875 45.109375 
Q 72.65625 49.609375 69.140625 53.515625 
Q 65.625 57.421875 61.328125 64.640625 
Q 57.03125 71.875 54.296875 78.125 
Q 58.59375 79.296875 61.71875 80.859375 
z
M 42.1875 75.390625 
Q 38.671875 69.140625 36.328125 64.453125 
Q 33.984375 59.765625 31.640625 56.046875 
Q 29.296875 52.34375 24.609375 46.09375 
Q 19.921875 39.84375 13.28125 33.203125 
Q 9.765625 36.71875 6.25 38.671875 
Q 14.0625 45.703125 18.546875 51.5625 
Q 23.046875 57.421875 27.140625 64.25 
Q 31.25 71.09375 34.375 79.296875 
Q 37.5 76.953125 42.1875 75.390625 
z
" id="SimHei-20998"/>
       <path d="M 70.703125 76.953125 
Q 69.921875 75 68.75 71.671875 
Q 67.578125 68.359375 65.234375 59.765625 
L 83.203125 59.765625 
Q 87.109375 59.765625 92.578125 60.15625 
L 92.578125 53.125 
Q 88.28125 53.515625 85.9375 53.515625 
Q 85.9375 47.265625 83.78125 33.78125 
Q 81.640625 20.3125 76.171875 10.546875 
Q 80.078125 5.859375 84.953125 2.140625 
Q 89.84375 -1.5625 94.140625 -3.125 
Q 89.453125 -6.640625 87.890625 -9.765625 
Q 83.203125 -7.03125 79.296875 -3.515625 
Q 75.390625 0 71.484375 5.078125 
Q 67.1875 0.390625 62.296875 -2.921875 
Q 57.421875 -6.25 50 -10.15625 
Q 48.046875 -6.640625 44.53125 -4.6875 
Q 50.390625 -2.34375 57.03125 1.953125 
Q 63.671875 6.25 67.1875 10.546875 
Q 64.453125 16.015625 61.90625 22.265625 
Q 59.375 28.515625 57.421875 38.671875 
Q 56.25 35.546875 53.515625 30.46875 
Q 50.78125 32.03125 46.875 33.59375 
Q 53.125 44.53125 57.03125 57.421875 
Q 60.9375 70.3125 62.109375 79.6875 
Q 66.796875 77.734375 70.703125 76.953125 
z
M 32.8125 35.15625 
Q 31.25 33.59375 29.296875 30.078125 
L 50.78125 30.078125 
Q 48.4375 20.3125 42.578125 10.546875 
Q 48.828125 8.203125 52.34375 6.25 
Q 50.390625 3.515625 48.828125 0.390625 
Q 45.3125 2.734375 38.28125 5.078125 
Q 30.46875 -3.515625 11.328125 -10.15625 
Q 9.375 -5.859375 6.25 -4.296875 
Q 24.609375 0 31.25 7.421875 
Q 20.3125 10.15625 13.28125 12.109375 
Q 15.625 15.625 19.53125 23.828125 
Q 15.625 23.828125 6.640625 23.4375 
L 6.640625 30.46875 
Q 14.0625 30.078125 21.875 30.078125 
Q 23.4375 33.59375 24.21875 37.890625 
Q 28.515625 36.328125 32.8125 35.15625 
z
M 27.734375 61.71875 
Q 27.734375 71.09375 27.34375 79.6875 
L 35.15625 79.6875 
Q 34.765625 71.484375 34.765625 61.71875 
Q 48.046875 61.71875 53.515625 62.109375 
L 53.515625 55.078125 
Q 48.046875 55.46875 34.765625 55.46875 
Q 34.765625 44.140625 35.15625 37.890625 
L 27.34375 37.890625 
Q 27.734375 43.359375 27.734375 51.5625 
Q 25.78125 48.4375 20.3125 43.546875 
Q 14.84375 38.671875 10.15625 35.9375 
Q 8.203125 39.453125 4.296875 41.015625 
Q 7.8125 42.1875 13.671875 46.484375 
Q 19.53125 50.78125 22.65625 55.46875 
Q 14.84375 55.46875 7.8125 55.078125 
L 7.8125 62.109375 
Q 14.453125 61.71875 27.734375 61.71875 
z
M 62.109375 49.609375 
Q 65.625 26.5625 71.875 17.578125 
Q 75.78125 26.5625 77.140625 35.734375 
Q 78.515625 44.921875 78.90625 53.515625 
L 63.671875 53.515625 
L 62.109375 49.609375 
z
M 22.65625 15.625 
Q 27.34375 14.453125 35.546875 12.5 
Q 38.671875 16.40625 41.40625 23.828125 
L 26.953125 23.828125 
Q 25 19.921875 22.65625 15.625 
z
M 51.953125 75.390625 
Q 50 72.265625 48.828125 69.53125 
Q 47.65625 66.796875 45.703125 62.890625 
Q 42.578125 64.453125 39.453125 65.234375 
Q 42.578125 70.3125 45.3125 78.125 
Q 49.21875 76.171875 51.953125 75.390625 
z
M 40.234375 52.734375 
Q 45.3125 47.65625 50 42.578125 
Q 47.65625 40.625 44.921875 37.890625 
Q 39.453125 44.53125 35.9375 48.4375 
Q 38.28125 50.390625 40.234375 52.734375 
z
M 14.453125 78.125 
Q 19.921875 72.65625 23.4375 67.1875 
L 17.578125 63.671875 
Q 14.84375 69.140625 9.375 73.828125 
Q 12.890625 76.171875 14.453125 78.125 
z
" id="SimHei-25968"/>
       <path d="M 91.40625 70.703125 
Q 85.546875 71.09375 75.78125 71.09375 
L 17.96875 71.09375 
L 17.96875 -1.171875 
L 81.640625 -1.171875 
Q 89.453125 -1.171875 94.140625 -0.78125 
L 94.140625 -7.8125 
Q 89.0625 -7.421875 80.859375 -7.421875 
L 9.765625 -7.421875 
Q 10.15625 1.953125 10.15625 6.25 
L 10.15625 65.625 
Q 10.15625 72.265625 9.765625 77.734375 
L 91.40625 77.734375 
z
M 35.546875 60.546875 
Q 49.21875 51.171875 59.375 42.1875 
Q 68.359375 52.734375 72.65625 63.28125 
Q 76.953125 60.546875 82.8125 57.8125 
Q 78.515625 55.078125 75.390625 50.390625 
Q 72.265625 45.703125 66.015625 37.109375 
Q 79.296875 26.171875 87.5 15.625 
Q 82.8125 12.5 80.859375 8.984375 
Q 74.609375 18.359375 60.15625 30.46875 
Q 54.296875 23.828125 48.234375 18.359375 
Q 42.1875 12.890625 33.203125 6.25 
Q 29.6875 9.765625 25.390625 12.109375 
Q 33.203125 15.625 39.453125 20.5 
Q 45.703125 25.390625 54.296875 35.9375 
Q 44.53125 44.921875 30.078125 53.90625 
Q 33.984375 57.03125 35.546875 60.546875 
z
" id="SimHei-21306"/>
       <path d="M 69.53125 55.46875 
Q 69.140625 48.046875 69.140625 42.578125 
L 69.140625 21.875 
Q 69.140625 16.796875 69.53125 9.765625 
L 30.078125 9.765625 
Q 30.46875 16.796875 30.46875 22.265625 
L 30.46875 42.578125 
Q 30.46875 48.046875 30.078125 55.46875 
L 69.53125 55.46875 
z
M 90.625 76.171875 
Q 90.234375 68.75 90.234375 61.328125 
L 90.234375 3.90625 
Q 90.625 -5.078125 85.34375 -7.03125 
Q 80.078125 -8.984375 73.828125 -9.765625 
Q 73.4375 -5.078125 70.703125 -0.390625 
Q 78.125 -0.78125 80.265625 0.390625 
Q 82.421875 1.5625 82.421875 5.46875 
L 82.421875 69.53125 
L 58.984375 69.53125 
Q 49.609375 69.53125 41.40625 69.140625 
L 41.40625 76.5625 
Q 49.609375 76.171875 58.984375 76.171875 
z
M 8.59375 -8.203125 
Q 9.375 -0.390625 9.375 8.203125 
L 9.375 49.21875 
Q 9.375 57.421875 8.59375 62.890625 
L 17.578125 62.890625 
Q 17.1875 57.03125 17.1875 51.5625 
L 17.1875 7.8125 
Q 17.1875 0 17.578125 -8.203125 
z
M 61.71875 16.015625 
L 61.71875 30.46875 
L 37.890625 30.46875 
L 37.890625 16.015625 
z
M 61.71875 36.71875 
L 61.71875 49.21875 
L 37.890625 49.21875 
L 37.890625 36.71875 
z
M 23.828125 82.8125 
Q 27.34375 78.125 34.765625 67.96875 
Q 30.46875 66.015625 26.5625 63.671875 
Q 22.65625 71.484375 16.796875 78.515625 
Q 21.09375 81.640625 23.828125 82.8125 
z
" id="SimHei-38388"/>
      </defs>
      <use xlink:href="#SimHei-20998"/>
      <use x="100" xlink:href="#SimHei-25968"/>
      <use x="200" xlink:href="#SimHei-21306"/>
      <use x="300" xlink:href="#SimHei-38388"/>
     </g>
    </g>
   </g>
   <g id="matplotlib.axis_2">
    <g id="ytick_1">
     <g id="line2d_6">
      <defs>
       <path d="M 0 0 
L -3.5 0 
" id="m6393aee2d3" style="stroke:#000000;stroke-width:0.8;"/>
      </defs>
      <g>
       <use style="stroke:#000000;stroke-width:0.8;" x="72" xlink:href="#m6393aee2d3" y="231.959132"/>
      </g>
     </g>
     <g id="text_7">
      <!-- 0.4 -->
      <g transform="translate(50 235.396632)scale(0.1 -0.1)">
       <defs>
        <path d="M 16.796875 1.953125 
L 7.8125 1.953125 
L 7.8125 10.546875 
L 16.796875 10.546875 
z
" id="SimHei-46"/>
       </defs>
       <use xlink:href="#SimHei-48"/>
       <use x="50" xlink:href="#SimHei-46"/>
       <use x="100" xlink:href="#SimHei-52"/>
      </g>
     </g>
    </g>
    <g id="ytick_2">
     <g id="line2d_7">
      <g>
       <use style="stroke:#000000;stroke-width:0.8;" x="72" xlink:href="#m6393aee2d3" y="200.739277"/>
      </g>
     </g>
     <g id="text_8">
      <!-- 0.5 -->
      <g transform="translate(50 204.176777)scale(0.1 -0.1)">
       <use xlink:href="#SimHei-48"/>
       <use x="50" xlink:href="#SimHei-46"/>
       <use x="100" xlink:href="#SimHei-53"/>
      </g>
     </g>
    </g>
    <g id="ytick_3">
     <g id="line2d_8">
      <g>
       <use style="stroke:#000000;stroke-width:0.8;" x="72" xlink:href="#m6393aee2d3" y="169.519421"/>
      </g>
     </g>
     <g id="text_9">
      <!-- 0.6 -->
      <g transform="translate(50 172.956921)scale(0.1 -0.1)">
       <use xlink:href="#SimHei-48"/>
       <use x="50" xlink:href="#SimHei-46"/>
       <use x="100" xlink:href="#SimHei-54"/>
      </g>
     </g>
    </g>
    <g id="ytick_4">
     <g id="line2d_9">
      <g>
       <use style="stroke:#000000;stroke-width:0.8;" x="72" xlink:href="#m6393aee2d3" y="138.299566"/>
      </g>
     </g>
     <g id="text_10">
      <!-- 0.7 -->
      <g transform="translate(50 141.737066)scale(0.1 -0.1)">
       <use xlink:href="#SimHei-48"/>
       <use x="50" xlink:href="#SimHei-46"/>
       <use x="100" xlink:href="#SimHei-55"/>
      </g>
     </g>
    </g>
    <g id="ytick_5">
     <g id="line2d_10">
      <g>
       <use style="stroke:#000000;stroke-width:0.8;" x="72" xlink:href="#m6393aee2d3" y="107.079711"/>
      </g>
     </g>
     <g id="text_11">
      <!-- 0.8 -->
      <g transform="translate(50 110.517211)scale(0.1 -0.1)">
       <defs>
        <path d="M 2.734375 16.796875 
Q 2.734375 26.171875 5.078125 30.65625 
Q 7.421875 35.15625 12.890625 37.890625 
Q 8.203125 40.625 6.640625 43.9375 
Q 5.078125 47.265625 4.875 51.5625 
Q 4.6875 55.859375 6.046875 58.984375 
Q 7.421875 62.109375 10.15625 64.84375 
Q 12.890625 67.578125 16.203125 68.546875 
Q 19.53125 69.53125 23.4375 69.53125 
Q 27.34375 69.53125 30.46875 68.75 
Q 33.59375 67.96875 37.109375 65.421875 
Q 40.625 62.890625 42.1875 58.203125 
Q 43.75 53.515625 41.984375 47.265625 
Q 40.234375 41.015625 32.8125 37.5 
Q 39.453125 35.546875 42.1875 31.4375 
Q 44.921875 27.34375 44.921875 21.484375 
Q 44.921875 15.625 43.15625 12.109375 
Q 41.40625 8.59375 39.25 6.25 
Q 37.109375 3.90625 33.390625 2.53125 
Q 29.6875 1.171875 24.015625 1.171875 
Q 18.359375 1.171875 14.25 2.53125 
Q 10.15625 3.90625 7.421875 6.640625 
Q 4.6875 9.375 3.703125 13.078125 
Q 2.734375 16.796875 2.734375 26.171875 
z
M 10.9375 26.5625 
Q 10.546875 17.1875 12.296875 13.671875 
Q 14.0625 10.15625 18.75 9.171875 
Q 23.4375 8.203125 28.515625 9.375 
Q 33.59375 10.546875 35.546875 14.84375 
Q 37.5 19.140625 36.90625 23.4375 
Q 36.328125 27.734375 32.03125 30.65625 
Q 27.734375 33.59375 22.65625 33.203125 
Q 17.578125 32.8125 14.25 29.6875 
Q 10.9375 26.5625 10.546875 17.1875 
z
M 12.109375 56.25 
Q 12.109375 48.4375 14.84375 44.921875 
Q 17.578125 41.40625 23.4375 41.40625 
Q 29.296875 41.40625 32.21875 44.921875 
Q 35.15625 48.4375 34.953125 53.3125 
Q 34.765625 58.203125 31.4375 60.546875 
Q 28.125 62.890625 22.453125 62.5 
Q 16.796875 62.109375 14.453125 59.171875 
Q 12.109375 56.25 12.109375 48.4375 
z
" id="SimHei-56"/>
       </defs>
       <use xlink:href="#SimHei-48"/>
       <use x="50" xlink:href="#SimHei-46"/>
       <use x="100" xlink:href="#SimHei-56"/>
      </g>
     </g>
    </g>
    <g id="ytick_6">
     <g id="line2d_11">
      <g>
       <use style="stroke:#000000;stroke-width:0.8;" x="72" xlink:href="#m6393aee2d3" y="75.859855"/>
      </g>
     </g>
     <g id="text_12">
      <!-- 0.9 -->
      <g transform="translate(50 79.297355)scale(0.1 -0.1)">
       <defs>
        <path d="M 12.5 1.171875 
Q 21.09375 15.625 26.5625 27.34375 
Q 16.796875 25.78125 10.34375 29.875 
Q 3.90625 33.984375 2.53125 41.015625 
Q 1.171875 48.046875 2.734375 53.703125 
Q 4.296875 59.375 7.609375 63.078125 
Q 10.9375 66.796875 15.625 68.359375 
Q 20.3125 69.921875 24.015625 69.921875 
Q 27.734375 69.921875 31.640625 68.359375 
Q 35.546875 66.796875 38.671875 63.671875 
Q 41.796875 60.546875 42.96875 57.21875 
Q 44.140625 53.90625 44.140625 48.625 
Q 44.140625 43.359375 40.234375 35.15625 
Q 36.328125 26.953125 21.09375 1.171875 
z
M 9.765625 50 
Q 10.9375 39.84375 14.640625 36.515625 
Q 18.359375 33.203125 22.65625 33.59375 
Q 26.953125 33.984375 29.484375 35.9375 
Q 32.03125 37.890625 34.375 42.578125 
Q 35.9375 48.4375 35.15625 52.53125 
Q 34.375 56.640625 31.046875 59.375 
Q 27.734375 62.109375 23.828125 62.109375 
Q 21.484375 62.5 17.765625 60.9375 
Q 14.0625 59.375 11.90625 54.6875 
Q 9.765625 50 10.9375 39.84375 
z
" id="SimHei-57"/>
       </defs>
       <use xlink:href="#SimHei-48"/>
       <use x="50" xlink:href="#SimHei-46"/>
       <use x="100" xlink:href="#SimHei-57"/>
      </g>
     </g>
    </g>
    <g id="ytick_7">
     <g id="line2d_12">
      <g>
       <use style="stroke:#000000;stroke-width:0.8;" x="72" xlink:href="#m6393aee2d3" y="44.64"/>
      </g>
     </g>
     <g id="text_13">
      <!-- 1.0 -->
      <g transform="translate(50 48.0775)scale(0.1 -0.1)">
       <defs>
        <path d="M 21.875 56.25 
Q 16.796875 51.171875 8.984375 46.484375 
L 8.984375 53.90625 
Q 18.75 60.546875 25 69.53125 
L 29.6875 69.53125 
L 29.6875 2.34375 
L 21.875 2.34375 
z
" id="SimHei-49"/>
       </defs>
       <use xlink:href="#SimHei-49"/>
       <use x="50" xlink:href="#SimHei-46"/>
       <use x="100" xlink:href="#SimHei-48"/>
      </g>
     </g>
    </g>
    <g id="text_14">
     <!-- 录取率 -->
     <g transform="translate(44.75 160.44)rotate(-90)scale(0.1 -0.1)">
      <defs>
       <path d="M 19.140625 54.296875 
L 19.140625 61.328125 
Q 26.5625 60.9375 32.03125 60.9375 
L 71.875 60.9375 
L 72.65625 69.53125 
L 31.640625 69.53125 
Q 23.828125 69.53125 15.625 69.140625 
L 15.625 76.5625 
Q 23.828125 75.78125 31.25 75.78125 
L 81.25 75.78125 
Q 79.6875 61.71875 78.515625 45.703125 
Q 87.109375 45.703125 94.53125 46.09375 
L 94.53125 39.0625 
Q 87.890625 39.453125 80.859375 39.453125 
L 54.6875 39.453125 
L 54.6875 31.25 
Q 58.59375 24.609375 62.109375 21.875 
Q 73.4375 29.6875 78.125 34.765625 
Q 82.03125 31.640625 85.546875 28.515625 
Q 78.90625 25.390625 66.796875 17.1875 
Q 73.046875 10.9375 78.90625 8.203125 
Q 84.765625 5.46875 94.921875 3.125 
Q 90.625 -1.5625 89.453125 -5.859375 
Q 78.90625 -1.171875 70.109375 5.078125 
Q 61.328125 11.328125 54.6875 20.3125 
L 54.6875 -0.390625 
Q 54.6875 -5.859375 49.609375 -7.8125 
Q 44.53125 -9.765625 39.0625 -10.546875 
Q 38.671875 -5.859375 35.9375 -1.171875 
Q 43.359375 -1.5625 44.921875 -0.578125 
Q 46.484375 0.390625 46.484375 3.90625 
L 46.484375 39.453125 
L 19.921875 39.453125 
Q 12.890625 39.453125 5.46875 39.0625 
L 5.46875 46.09375 
Q 12.890625 45.703125 19.921875 45.703125 
L 70.703125 45.703125 
L 71.484375 54.296875 
z
M 44.921875 15.625 
Q 37.890625 11.328125 29.09375 7.03125 
Q 20.3125 2.734375 10.546875 -3.125 
Q 8.203125 1.171875 4.6875 4.6875 
Q 17.1875 8.59375 26.5625 13.28125 
Q 35.9375 17.96875 43.359375 22.265625 
Q 44.140625 18.75 44.921875 15.625 
z
M 18.75 35.546875 
Q 28.125 28.515625 33.984375 23.4375 
Q 31.640625 21.09375 28.90625 17.578125 
Q 21.484375 25 14.453125 30.078125 
Q 16.796875 32.421875 18.75 35.546875 
z
" id="SimHei-24405"/>
       <path d="M 41.40625 76.171875 
Q 48.046875 76.171875 52.734375 76.5625 
L 52.734375 69.921875 
Q 49.609375 70.3125 46.484375 70.3125 
L 46.484375 17.578125 
Q 50.78125 18.75 56.25 20.3125 
L 56.25 13.671875 
Q 51.171875 12.5 46.484375 11.328125 
Q 46.484375 -3.90625 46.875 -10.9375 
L 39.0625 -10.9375 
Q 39.453125 -5.078125 39.453125 9.765625 
Q 30.078125 7.8125 22.265625 5.078125 
Q 14.453125 2.34375 8.984375 -0.390625 
L 5.859375 8.59375 
L 14.453125 10.15625 
L 14.453125 70.3125 
Q 11.328125 70.3125 6.640625 69.921875 
L 6.640625 76.5625 
Q 11.71875 76.171875 20.3125 76.171875 
z
M 49.609375 -1.953125 
Q 54.6875 1.171875 58.78125 5.65625 
Q 62.890625 10.15625 67.96875 17.96875 
Q 62.109375 28.90625 60.34375 40.234375 
Q 58.59375 51.5625 57.8125 66.40625 
L 54.6875 66.40625 
L 54.6875 73.046875 
Q 62.5 72.65625 68.75 72.65625 
L 90.625 72.65625 
Q 89.0625 53.515625 86.125 41.015625 
Q 83.203125 28.515625 76.953125 17.96875 
Q 80.078125 12.5 85.34375 7.8125 
Q 90.625 3.125 96.875 -0.390625 
Q 92.96875 -3.125 90.234375 -7.03125 
Q 82.03125 -1.5625 72.65625 11.328125 
Q 65.625 0 56.640625 -7.8125 
Q 54.296875 -4.6875 49.609375 -1.953125 
z
M 64.84375 66.40625 
Q 66.015625 50.78125 66.984375 42.96875 
Q 67.96875 35.15625 72.265625 25 
Q 78.515625 37.890625 80.265625 49.015625 
Q 82.03125 60.15625 82.421875 66.40625 
L 64.84375 66.40625 
z
M 39.453125 53.90625 
L 39.453125 70.3125 
L 21.484375 70.3125 
L 21.484375 53.90625 
z
M 21.484375 11.71875 
Q 30.859375 13.671875 39.453125 15.625 
L 39.453125 28.125 
L 21.484375 28.125 
L 21.484375 11.71875 
z
M 39.453125 34.375 
L 39.453125 48.046875 
L 21.484375 48.046875 
L 21.484375 34.375 
z
" id="SimHei-21462"/>
       <path d="M 51.953125 80.46875 
Q 53.515625 76.5625 55.46875 70.703125 
L 75 70.703125 
Q 82.03125 70.703125 90.625 71.09375 
L 90.625 64.453125 
Q 82.03125 65.234375 74.609375 65.234375 
L 43.75 65.234375 
Q 46.484375 63.28125 51.5625 60.9375 
Q 48.046875 58.59375 44.921875 55.265625 
Q 41.796875 51.953125 38.671875 48.828125 
L 51.171875 48.828125 
Q 55.859375 53.515625 58.984375 58.984375 
Q 62.5 56.25 66.796875 53.515625 
Q 61.71875 50.78125 56.25 44.921875 
Q 50.78125 39.0625 41.015625 31.25 
L 60.15625 32.8125 
Q 58.203125 35.15625 56.25 37.890625 
Q 58.59375 38.671875 62.5 41.40625 
Q 66.40625 36.71875 73.4375 26.5625 
Q 69.921875 25.390625 66.015625 22.65625 
Q 65.234375 25 62.890625 27.734375 
Q 57.8125 27.34375 53.515625 27.34375 
L 53.515625 16.40625 
L 80.46875 16.40625 
Q 88.671875 16.40625 95.3125 16.796875 
L 95.3125 10.15625 
Q 89.0625 10.546875 80.078125 10.546875 
L 53.515625 10.546875 
L 53.515625 2.734375 
Q 53.515625 -4.6875 53.90625 -9.765625 
L 45.3125 -9.765625 
Q 45.703125 -4.6875 45.703125 2.734375 
L 45.703125 10.546875 
L 20.703125 10.546875 
Q 12.890625 10.546875 5.078125 10.15625 
L 5.078125 16.796875 
Q 12.890625 16.40625 21.09375 16.40625 
L 45.703125 16.40625 
L 45.703125 26.5625 
Q 42.1875 26.171875 38.671875 25.578125 
Q 35.15625 25 31.640625 23.828125 
Q 30.46875 27.734375 28.90625 31.25 
Q 32.421875 31.640625 36.328125 34.375 
Q 40.234375 37.109375 46.484375 43.75 
Q 35.9375 42.578125 31.640625 41.015625 
Q 30.859375 44.921875 28.90625 49.609375 
Q 32.421875 49.609375 36.328125 54.484375 
Q 40.234375 59.375 42.96875 65.234375 
L 26.5625 65.234375 
Q 17.96875 65.234375 10.15625 64.453125 
L 10.15625 71.09375 
Q 17.96875 70.703125 24.21875 70.703125 
L 46.484375 70.703125 
Q 45.3125 75.390625 43.75 78.515625 
Q 47.265625 79.296875 51.953125 80.46875 
z
M 25.390625 40.234375 
Q 26.953125 37.5 28.515625 34.375 
Q 24.609375 32.03125 20.703125 29.09375 
Q 16.796875 26.171875 12.5 22.265625 
Q 9.765625 26.171875 7.421875 29.296875 
Q 12.5 31.640625 17.1875 34.5625 
Q 21.875 37.5 25.390625 40.234375 
z
M 75.78125 41.40625 
Q 80.078125 38.671875 83.390625 36.515625 
Q 86.71875 34.375 91.796875 30.46875 
Q 88.671875 28.125 85.9375 25 
Q 82.8125 27.734375 79.09375 30.859375 
Q 75.390625 33.984375 71.484375 36.328125 
Q 73.828125 38.671875 75.78125 41.40625 
z
M 89.453125 55.078125 
Q 86.71875 53.90625 82.8125 50.96875 
Q 78.90625 48.046875 75 44.140625 
Q 72.265625 47.65625 69.921875 49.609375 
Q 73.4375 51.953125 76.171875 54.484375 
Q 78.90625 57.03125 82.8125 61.328125 
Q 86.328125 57.8125 89.453125 55.078125 
z
M 16.40625 60.15625 
Q 22.265625 56.25 27.734375 51.171875 
Q 24.609375 48.4375 22.265625 45.703125 
Q 16.796875 51.5625 10.546875 55.078125 
Q 13.671875 57.8125 16.40625 60.15625 
z
" id="SimHei-29575"/>
      </defs>
      <use xlink:href="#SimHei-24405"/>
      <use x="100" xlink:href="#SimHei-21462"/>
      <use x="200" xlink:href="#SimHei-29575"/>
     </g>
    </g>
   </g>
   <g id="line2d_13">
    <path clip-path="url(#p224824c753)" d="M 92.290909 203.444997 
L 193.745455 224.542219 
L 295.2 235.274788 
L 396.654545 155.940141 
L 498.109091 246.24 
" style="fill:none;stroke:#845ec2;stroke-linecap:square;stroke-width:3;"/>
    <defs>
     <path d="M -3 3 
L 3 -3 
M -3 -3 
L 3 3 
" id="m8851b4521f" style="stroke:#845ec2;"/>
    </defs>
    <g clip-path="url(#p224824c753)">
     <use style="fill:#845ec2;stroke:#845ec2;" x="92.290909" xlink:href="#m8851b4521f" y="203.444997"/>
     <use style="fill:#845ec2;stroke:#845ec2;" x="193.745455" xlink:href="#m8851b4521f" y="224.542219"/>
     <use style="fill:#845ec2;stroke:#845ec2;" x="295.2" xlink:href="#m8851b4521f" y="235.274788"/>
     <use style="fill:#845ec2;stroke:#845ec2;" x="396.654545" xlink:href="#m8851b4521f" y="155.940141"/>
     <use style="fill:#845ec2;stroke:#845ec2;" x="498.109091" xlink:href="#m8851b4521f" y="246.24"/>
    </g>
   </g>
   <g id="line2d_14">
    <path clip-path="url(#p224824c753)" d="M 92.290909 65.141038 
L 193.745455 127.892948 
L 295.2 162.108422 
L 396.654545 107.453853 
L 498.109091 150.118511 
" style="fill:none;stroke:#d7e8f0;stroke-linecap:square;stroke-width:3;"/>
    <defs>
     <path d="M 0 3 
C 0.795609 3 1.55874 2.683901 2.12132 2.12132 
C 2.683901 1.55874 3 0.795609 3 0 
C 3 -0.795609 2.683901 -1.55874 2.12132 -2.12132 
C 1.55874 -2.683901 0.795609 -3 0 -3 
C -0.795609 -3 -1.55874 -2.683901 -2.12132 -2.12132 
C -2.683901 -1.55874 -3 -0.795609 -3 0 
C -3 0.795609 -2.683901 1.55874 -2.12132 2.12132 
C -1.55874 2.683901 -0.795609 3 0 3 
z
" id="ma480fa3e5a" style="stroke:#d7e8f0;"/>
    </defs>
    <g clip-path="url(#p224824c753)">
     <use style="fill:#d7e8f0;stroke:#d7e8f0;" x="92.290909" xlink:href="#ma480fa3e5a" y="65.141038"/>
     <use style="fill:#d7e8f0;stroke:#d7e8f0;" x="193.745455" xlink:href="#ma480fa3e5a" y="127.892948"/>
     <use style="fill:#d7e8f0;stroke:#d7e8f0;" x="295.2" xlink:href="#ma480fa3e5a" y="162.108422"/>
     <use style="fill:#d7e8f0;stroke:#d7e8f0;" x="396.654545" xlink:href="#ma480fa3e5a" y="107.453853"/>
     <use style="fill:#d7e8f0;stroke:#d7e8f0;" x="498.109091" xlink:href="#ma480fa3e5a" y="150.118511"/>
    </g>
   </g>
   <g id="line2d_15">
    <path clip-path="url(#p224824c753)" d="M 92.290909 44.64 
L 193.745455 55.547275 
L 295.2 56.229916 
L 396.654545 69.318968 
L 498.109091 134.439206 
" style="fill:none;stroke:#2e839e;stroke-linecap:square;stroke-width:3;"/>
    <defs>
     <path d="M -0 3 
L 3 -3 
L -3 -3 
z
" id="m82289ec65c" style="stroke:#2e839e;stroke-linejoin:miter;"/>
    </defs>
    <g clip-path="url(#p224824c753)">
     <use style="fill:#2e839e;stroke:#2e839e;stroke-linejoin:miter;" x="92.290909" xlink:href="#m82289ec65c" y="44.64"/>
     <use style="fill:#2e839e;stroke:#2e839e;stroke-linejoin:miter;" x="193.745455" xlink:href="#m82289ec65c" y="55.547275"/>
     <use style="fill:#2e839e;stroke:#2e839e;stroke-linejoin:miter;" x="295.2" xlink:href="#m82289ec65c" y="56.229916"/>
     <use style="fill:#2e839e;stroke:#2e839e;stroke-linejoin:miter;" x="396.654545" xlink:href="#m82289ec65c" y="69.318968"/>
     <use style="fill:#2e839e;stroke:#2e839e;stroke-linejoin:miter;" x="498.109091" xlink:href="#m82289ec65c" y="134.439206"/>
    </g>
   </g>
   <g id="patch_3">
    <path d="M 72 256.32 
L 72 34.56 
" style="fill:none;stroke:#000000;stroke-linecap:square;stroke-linejoin:miter;stroke-width:0.8;"/>
   </g>
   <g id="patch_4">
    <path d="M 518.4 256.32 
L 518.4 34.56 
" style="fill:none;stroke:#000000;stroke-linecap:square;stroke-linejoin:miter;stroke-width:0.8;"/>
   </g>
   <g id="patch_5">
    <path d="M 72 256.32 
L 518.4 256.32 
" style="fill:none;stroke:#000000;stroke-linecap:square;stroke-linejoin:miter;stroke-width:0.8;"/>
   </g>
   <g id="patch_6">
    <path d="M 72 34.56 
L 518.4 34.56 
" style="fill:none;stroke:#000000;stroke-linecap:square;stroke-linejoin:miter;stroke-width:0.8;"/>
   </g>
   <g id="legend_1">
    <g id="patch_7">
     <path d="M 469.4 84.825625 
L 511.4 84.825625 
Q 513.4 84.825625 513.4 82.825625 
L 513.4 41.56 
Q 513.4 39.56 511.4 39.56 
L 469.4 39.56 
Q 467.4 39.56 467.4 41.56 
L 467.4 82.825625 
Q 467.4 84.825625 469.4 84.825625 
z
" style="fill:#ffffff;opacity:0.8;stroke:#cccccc;stroke-linejoin:miter;"/>
    </g>
    <g id="line2d_16">
     <path d="M 471.4 47.755313 
L 491.4 47.755313 
" style="fill:none;stroke:#845ec2;stroke-linecap:square;stroke-width:3;"/>
    </g>
    <g id="line2d_17">
     <g>
      <use style="fill:#845ec2;stroke:#845ec2;" x="481.4" xlink:href="#m8851b4521f" y="47.755313"/>
     </g>
    </g>
    <g id="text_15">
     <!-- 冲 -->
     <g transform="translate(499.4 51.255313)scale(0.1 -0.1)">
      <defs>
       <path d="M 59.375 62.5 
Q 59.375 74.21875 58.984375 80.859375 
L 67.578125 80.859375 
Q 67.1875 74.609375 67.1875 62.5 
L 91.40625 62.5 
Q 91.015625 57.8125 91.015625 50.78125 
L 91.015625 25 
Q 91.015625 20.3125 91.40625 16.40625 
L 83.203125 16.40625 
L 83.203125 23.828125 
L 67.1875 23.828125 
Q 67.1875 -3.90625 67.578125 -8.59375 
L 58.984375 -8.59375 
Q 59.375 -1.953125 59.375 23.828125 
L 42.578125 23.828125 
L 42.578125 15.625 
L 34.375 15.625 
Q 34.765625 18.75 34.765625 24.21875 
L 34.765625 50 
Q 34.765625 57.8125 34.375 62.5 
L 59.375 62.5 
z
M 59.375 30.46875 
L 59.375 55.859375 
L 42.578125 55.859375 
L 42.578125 30.46875 
z
M 83.203125 30.46875 
L 83.203125 55.859375 
L 67.1875 55.859375 
L 67.1875 30.46875 
z
M 30.859375 32.421875 
Q 26.5625 24.21875 20.703125 13.078125 
Q 14.84375 1.953125 12.109375 -3.125 
Q 8.59375 0.390625 3.515625 3.515625 
Q 8.984375 9.375 14.453125 18.75 
Q 19.921875 28.125 23.4375 37.5 
Q 25.78125 34.765625 30.859375 32.421875 
z
M 11.71875 71.09375 
Q 23.046875 60.9375 28.90625 54.296875 
Q 24.609375 51.171875 21.875 48.046875 
Q 18.359375 53.125 5.46875 64.84375 
L 11.71875 71.09375 
z
" id="SimHei-20914"/>
      </defs>
      <use xlink:href="#SimHei-20914"/>
     </g>
    </g>
    <g id="line2d_18">
     <path d="M 471.4 62.013125 
L 491.4 62.013125 
" style="fill:none;stroke:#d7e8f0;stroke-linecap:square;stroke-width:3;"/>
    </g>
    <g id="line2d_19">
     <g>
      <use style="fill:#d7e8f0;stroke:#d7e8f0;" x="481.4" xlink:href="#ma480fa3e5a" y="62.013125"/>
     </g>
    </g>
    <g id="text_16">
     <!-- 稳 -->
     <g transform="translate(499.4 65.513125)scale(0.1 -0.1)">
      <defs>
       <path d="M 63.28125 80.078125 
Q 60.546875 77.734375 57.421875 72.265625 
L 83.203125 72.265625 
Q 81.25 69.53125 79.09375 65.8125 
Q 76.953125 62.109375 75 57.03125 
L 87.890625 57.03125 
Q 87.5 52.34375 87.5 40.625 
Q 87.5 29.296875 87.890625 22.265625 
L 53.515625 22.265625 
Q 48.046875 22.265625 42.96875 21.875 
L 42.96875 28.90625 
Q 48.046875 28.515625 53.90625 28.515625 
L 79.6875 28.515625 
L 79.6875 37.109375 
L 55.46875 37.109375 
Q 49.609375 37.109375 44.921875 36.71875 
L 44.921875 43.359375 
Q 49.609375 42.96875 55.078125 42.96875 
L 79.6875 42.96875 
L 79.6875 51.171875 
L 58.984375 51.171875 
Q 52.34375 51.171875 47.65625 50.78125 
L 47.65625 57.03125 
Q 44.921875 53.515625 42.578125 50 
Q 39.453125 53.125 36.71875 54.296875 
Q 41.796875 60.546875 46.671875 68.9375 
Q 51.5625 77.34375 53.125 82.8125 
Q 58.203125 81.25 63.28125 80.078125 
z
M 39.0625 71.484375 
Q 35.546875 71.484375 31.4375 70.5 
Q 27.34375 69.53125 25.390625 69.53125 
L 25.390625 52.34375 
Q 30.859375 52.34375 37.109375 52.734375 
L 37.109375 46.09375 
Q 30.078125 46.484375 25.390625 46.484375 
L 25.390625 34.765625 
Q 27.734375 36.328125 30.46875 39.0625 
Q 34.765625 32.8125 39.453125 25 
Q 35.9375 23.4375 33.59375 21.09375 
Q 30.46875 26.953125 25.390625 33.984375 
L 25.390625 6.25 
Q 25.390625 0.390625 25.78125 -9.765625 
L 17.96875 -9.765625 
Q 18.75 0.390625 18.75 6.25 
L 18.75 32.421875 
Q 13.671875 19.53125 7.421875 10.15625 
Q 5.859375 14.453125 2.734375 17.578125 
Q 5.078125 19.53125 10.15625 29.484375 
Q 15.234375 39.453125 16.40625 46.484375 
Q 11.71875 46.484375 4.296875 46.09375 
L 4.296875 52.734375 
Q 11.71875 52.34375 18.75 52.34375 
L 18.75 67.578125 
Q 14.84375 66.796875 8.59375 65.625 
Q 7.421875 69.140625 4.296875 72.265625 
Q 11.71875 73.046875 19.328125 74.609375 
Q 26.953125 76.171875 33.203125 79.296875 
Q 35.546875 74.609375 39.0625 71.484375 
z
M 57.421875 16.015625 
Q 57.03125 10.9375 57.03125 4.6875 
Q 57.03125 -1.171875 58.984375 -1.5625 
Q 60.9375 -1.953125 66.40625 -1.953125 
Q 71.875 -1.953125 73.234375 -1.5625 
Q 74.609375 -1.171875 75.390625 6.640625 
Q 78.515625 4.296875 83.59375 3.125 
Q 80.46875 -7.03125 77.34375 -7.8125 
Q 74.21875 -8.59375 65.234375 -8.59375 
Q 56.640625 -8.59375 53.515625 -7.609375 
Q 50.390625 -6.640625 50.390625 -1.5625 
L 50.390625 8.203125 
Q 50.390625 12.109375 50 16.015625 
L 57.421875 16.015625 
z
M 47.65625 57.421875 
Q 51.953125 57.03125 58.984375 57.03125 
L 66.796875 57.03125 
Q 69.53125 62.5 71.484375 66.796875 
L 53.515625 66.796875 
Q 51.171875 63.28125 47.65625 57.421875 
z
M 45.703125 14.0625 
Q 43.75 11.328125 42.1875 4.484375 
Q 40.625 -2.34375 39.84375 -4.6875 
Q 36.328125 -3.125 32.421875 -2.734375 
Q 34.765625 3.125 35.546875 6.4375 
Q 36.328125 9.765625 37.890625 15.625 
L 45.703125 14.0625 
z
M 87.109375 17.1875 
Q 92.96875 7.421875 96.484375 0.78125 
Q 92.96875 -0.390625 89.84375 -2.734375 
Q 87.890625 2.734375 81.25 14.453125 
Q 84.765625 15.234375 87.109375 17.1875 
z
M 66.015625 20.3125 
Q 70.703125 12.890625 72.265625 8.203125 
Q 71.09375 7.8125 66.40625 5.46875 
Q 64.84375 10.9375 60.15625 17.578125 
Q 63.28125 18.75 66.015625 20.3125 
z
" id="SimHei-31283"/>
      </defs>
      <use xlink:href="#SimHei-31283"/>
     </g>
    </g>
    <g id="line2d_20">
     <path d="M 471.4 76.075625 
L 491.4 76.075625 
" style="fill:none;stroke:#2e839e;stroke-linecap:square;stroke-width:3;"/>
    </g>
    <g id="line2d_21">
     <g>
      <use style="fill:#2e839e;stroke:#2e839e;stroke-linejoin:miter;" x="481.4" xlink:href="#m82289ec65c" y="76.075625"/>
     </g>
    </g>
    <g id="text_17">
     <!-- 保 -->
     <g transform="translate(499.4 79.575625)scale(0.1 -0.1)">
      <defs>
       <path d="M 84.765625 76.953125 
Q 84.375 71.09375 84.375 61.71875 
Q 84.375 52.734375 84.765625 47.65625 
L 66.015625 47.65625 
L 66.015625 35.15625 
L 77.734375 35.15625 
Q 88.28125 35.15625 94.140625 35.546875 
L 94.140625 28.125 
Q 87.5 28.515625 78.515625 28.515625 
L 71.875 28.515625 
Q 75.390625 20.703125 81.640625 14.640625 
Q 87.890625 8.59375 96.484375 5.46875 
Q 93.359375 2.734375 90.625 -1.953125 
Q 81.25 3.125 75.1875 10.9375 
Q 69.140625 18.75 66.015625 26.5625 
L 66.015625 5.078125 
Q 66.015625 -3.90625 66.40625 -8.984375 
L 58.203125 -8.984375 
Q 58.59375 -3.515625 58.59375 4.296875 
L 58.59375 28.125 
Q 49.21875 9.375 34.765625 -2.734375 
Q 32.421875 0.78125 27.734375 2.734375 
Q 41.40625 10.15625 50.390625 28.515625 
L 44.921875 28.515625 
Q 36.71875 28.515625 31.25 28.125 
L 31.25 35.546875 
Q 36.71875 35.15625 44.140625 35.15625 
L 58.59375 35.15625 
L 58.59375 47.65625 
L 40.625 47.65625 
Q 41.015625 53.125 41.015625 62.5 
Q 41.015625 72.265625 40.625 76.953125 
L 84.765625 76.953125 
z
M 33.203125 77.734375 
Q 31.25 75 28.90625 69.921875 
Q 26.5625 64.84375 25 60.546875 
L 25 10.15625 
Q 25 -2.34375 25.390625 -8.984375 
L 17.578125 -8.984375 
Q 17.96875 -2.734375 17.96875 9.765625 
L 17.96875 46.875 
Q 12.5 37.5 8.203125 32.03125 
Q 6.25 35.546875 3.125 37.890625 
Q 11.328125 47.65625 16.984375 59.953125 
Q 22.65625 72.265625 24.609375 81.640625 
Q 27.734375 79.296875 33.203125 77.734375 
z
M 77.34375 53.90625 
L 77.34375 70.703125 
L 48.046875 70.703125 
L 48.046875 53.90625 
z
" id="SimHei-20445"/>
      </defs>
      <use xlink:href="#SimHei-20445"/>
     </g>
    </g>
   </g>
  </g>
 </g>
 <defs>
  <clipPath id="p224824c753">
   <rect height="221.76" width="446.4" x="72" y="34.56"/>
  </clipPath>
 </defs>
</svg>
